<svg width="229" height="237" viewBox="0 0 229 237" fill="none" xmlns="http://www.w3.org/2000/svg">
<g filter="url(#filter0_bd_202_4)">
<path d="M114.67 119.702L108 115.632L114.666 125.348L121.34 115.632L114.666 119.702H114.67ZM114.77 102.881L108.102 114.323L114.77 118.4L121.44 114.327L114.77 102.881Z" fill="url(#paint0_linear_202_4)"/>
</g>
<path d="M128.138 119.915C127.729 119.915 127.353 119.813 127.009 119.608C126.675 119.404 126.407 119.135 126.202 118.802C125.998 118.458 125.896 118.082 125.896 117.673V110.545C125.896 110.136 125.998 109.765 126.202 109.432C126.407 109.088 126.675 108.813 127.009 108.609C127.353 108.405 127.729 108.303 128.138 108.303H135.266C135.675 108.303 136.046 108.405 136.379 108.609C136.723 108.813 136.997 109.088 137.201 109.432C137.406 109.765 137.508 110.136 137.508 110.545V117.673C137.508 118.082 137.406 118.458 137.201 118.802C136.997 119.135 136.723 119.404 136.379 119.608C136.046 119.813 135.675 119.915 135.266 119.915H128.138ZM128.218 117.77H135.153C135.207 117.77 135.255 117.754 135.298 117.721C135.341 117.678 135.363 117.63 135.363 117.576V110.641C135.363 110.588 135.341 110.545 135.298 110.512C135.255 110.469 135.207 110.448 135.153 110.448H128.218C128.164 110.448 128.116 110.469 128.073 110.512C128.041 110.545 128.025 110.588 128.025 110.641V117.576C128.025 117.63 128.041 117.678 128.073 117.721C128.116 117.754 128.164 117.77 128.218 117.77ZM141.208 119.915C140.8 119.915 140.429 119.813 140.096 119.608C139.762 119.404 139.494 119.135 139.289 118.802C139.085 118.469 138.983 118.098 138.983 117.689V112.786C138.983 112.378 139.085 112.007 139.289 111.673C139.494 111.34 139.762 111.071 140.096 110.867C140.429 110.663 140.8 110.561 141.208 110.561H148.466V112.673H141.289C141.235 112.673 141.187 112.695 141.144 112.738C141.112 112.77 141.096 112.813 141.096 112.867V117.609C141.096 117.662 141.112 117.711 141.144 117.754C141.187 117.786 141.235 117.802 141.289 117.802H148.482V119.915H141.208ZM152.013 119.915C151.604 119.915 151.233 119.813 150.9 119.608C150.567 119.404 150.298 119.135 150.094 118.802C149.889 118.469 149.787 118.098 149.787 117.689V112.786C149.787 112.378 149.889 112.007 150.094 111.673C150.298 111.34 150.567 111.071 150.9 110.867C151.233 110.663 151.604 110.561 152.013 110.561H157.061C157.469 110.561 157.84 110.663 158.174 110.867C158.518 111.071 158.787 111.34 158.98 111.673C159.184 112.007 159.287 112.378 159.287 112.786V116.302H151.9V117.609C151.9 117.662 151.916 117.711 151.948 117.754C151.991 117.786 152.04 117.802 152.094 117.802H159.287V119.915H152.013ZM151.9 114.399H157.174V112.867C157.174 112.813 157.152 112.77 157.109 112.738C157.077 112.695 157.034 112.673 156.98 112.673H152.094C152.04 112.673 151.991 112.695 151.948 112.738C151.916 112.77 151.9 112.813 151.9 112.867V114.399ZM163.196 119.915C162.787 119.915 162.411 119.813 162.067 119.608C161.733 119.404 161.465 119.135 161.26 118.802C161.067 118.469 160.97 118.098 160.97 117.689V114.173H168.357V112.867C168.357 112.813 168.335 112.77 168.292 112.738C168.26 112.695 168.217 112.673 168.163 112.673H160.97V110.561H168.244C168.652 110.561 169.023 110.663 169.356 110.867C169.701 111.071 169.969 111.34 170.163 111.673C170.367 112.007 170.469 112.378 170.469 112.786V119.915H163.196ZM163.276 117.802H168.357V116.076H163.083V117.609C163.083 117.662 163.099 117.711 163.131 117.754C163.174 117.786 163.223 117.802 163.276 117.802ZM172.027 119.915V110.561H179.301C179.709 110.561 180.08 110.663 180.414 110.867C180.758 111.071 181.027 111.34 181.22 111.673C181.424 112.007 181.526 112.378 181.526 112.786V119.915H179.414V112.867C179.414 112.813 179.392 112.77 179.349 112.738C179.317 112.695 179.274 112.673 179.22 112.673H174.333C174.28 112.673 174.231 112.695 174.188 112.738C174.156 112.77 174.14 112.813 174.14 112.867V119.915H172.027Z" fill="white" fill-opacity="0.6"/>
<path d="M183.289 119.915V108.303H185.628L192.756 116.786V108.303H194.901V119.915H192.563L185.418 111.415V119.915H183.289ZM196.74 119.915V108.303H207.433V110.448H198.885V113.028H205.756V115.189H198.885V119.915H196.74ZM212.681 119.915V110.448H207.94V108.303H219.552V110.448H214.826V119.915H212.681Z" fill="white"/>
<defs>
<filter id="filter0_bd_202_4" x="-104.248" y="-109.367" width="437.936" height="446.964" filterUnits="userSpaceOnUse" color-interpolation-filters="sRGB">
<feFlood flood-opacity="0" result="BackgroundImageFix"/>
<feGaussianBlur in="BackgroundImageFix" stdDeviation="106.124"/>
<feComposite in2="SourceAlpha" operator="in" result="effect1_backgroundBlur_202_4"/>
<feColorMatrix in="SourceAlpha" type="matrix" values="0 0 0 0 0 0 0 0 0 0 0 0 0 0 0 0 0 0 127 0" result="hardAlpha"/>
<feOffset dy="4.42184"/>
<feGaussianBlur stdDeviation="53.6148"/>
<feComposite in2="hardAlpha" operator="out"/>
<feColorMatrix type="matrix" values="0 0 0 0 1 0 0 0 0 0.337255 0 0 0 0 0.964706 0 0 0 0.51 0"/>
<feBlend mode="normal" in2="effect1_backgroundBlur_202_4" result="effect2_dropShadow_202_4"/>
<feBlend mode="normal" in="SourceGraphic" in2="effect2_dropShadow_202_4" result="shape"/>
</filter>
<linearGradient id="paint0_linear_202_4" x1="108" y1="102.881" x2="124.333" y2="103.261" gradientUnits="userSpaceOnUse">
<stop offset="0.183111" stop-color="#FF56F6"/>
<stop offset="0.432593" stop-color="#B936EE"/>
<stop offset="0.854443" stop-color="#3BACE2"/>
<stop offset="1" stop-color="#406AFF"/>
</linearGradient>
</defs>
</svg>
