<svg width="95" height="12" viewBox="0 0 95 12" fill="none" xmlns="http://www.w3.org/2000/svg">
<path d="M3.13758 11.9148C2.72901 11.9148 2.35269 11.8127 2.00863 11.6084C1.67532 11.4041 1.40652 11.1353 1.20224 10.802C0.99795 10.4579 0.895807 10.0816 0.895807 9.67302V2.54451C0.895807 2.13593 0.99795 1.76499 1.20224 1.43168C1.40652 1.08762 1.67532 0.81345 2.00863 0.609164C2.35269 0.404878 2.72901 0.302735 3.13758 0.302735H10.2661C10.6747 0.302735 11.0456 0.404878 11.3789 0.609164C11.723 0.81345 11.9972 1.08762 12.2014 1.43168C12.4057 1.76499 12.5079 2.13593 12.5079 2.54451V9.67302C12.5079 10.0816 12.4057 10.4579 12.2014 10.802C11.9972 11.1353 11.723 11.4041 11.3789 11.6084C11.0456 11.8127 10.6747 11.9148 10.2661 11.9148H3.13758ZM3.21822 9.76979H10.1532C10.207 9.76979 10.2553 9.75366 10.2984 9.72141C10.3414 9.6784 10.3629 9.63001 10.3629 9.57625V2.64127C10.3629 2.58751 10.3414 2.54451 10.2984 2.51225C10.2553 2.46924 10.207 2.44774 10.1532 2.44774H3.21822C3.16446 2.44774 3.11608 2.46924 3.07307 2.51225C3.04081 2.54451 3.02468 2.58751 3.02468 2.64127V9.57625C3.02468 9.63001 3.04081 9.6784 3.07307 9.72141C3.11608 9.75366 3.16446 9.76979 3.21822 9.76979ZM16.2085 11.9148C15.7999 11.9148 15.4289 11.8127 15.0956 11.6084C14.7623 11.4041 14.4935 11.1353 14.2892 10.802C14.085 10.4687 13.9828 10.0977 13.9828 9.68915V4.78628C13.9828 4.37771 14.085 4.00677 14.2892 3.67346C14.4935 3.34015 14.7623 3.07135 15.0956 2.86706C15.4289 2.66278 15.7999 2.56063 16.2085 2.56063H23.466V4.67338H16.2891C16.2353 4.67338 16.187 4.69489 16.1439 4.7379C16.1117 4.77015 16.0956 4.81316 16.0956 4.86692V9.60851C16.0956 9.66227 16.1117 9.71065 16.1439 9.75366C16.187 9.78592 16.2353 9.80204 16.2891 9.80204H23.4821V11.9148H16.2085ZM27.0129 11.9148C26.6043 11.9148 26.2333 11.8127 25.9 11.6084C25.5667 11.4041 25.2979 11.1353 25.0936 10.802C24.8894 10.4687 24.7872 10.0977 24.7872 9.68915V4.78628C24.7872 4.37771 24.8894 4.00677 25.0936 3.67346C25.2979 3.34015 25.5667 3.07135 25.9 2.86706C26.2333 2.66278 26.6043 2.56063 27.0129 2.56063H32.0609C32.4695 2.56063 32.8404 2.66278 33.1737 2.86706C33.5178 3.07135 33.7866 3.34015 33.9801 3.67346C34.1844 4.00677 34.2865 4.37771 34.2865 4.78628V8.30215H26.9V9.60851C26.9 9.66227 26.9161 9.71065 26.9483 9.75366C26.9914 9.78592 27.0397 9.80204 27.0935 9.80204H34.2865V11.9148H27.0129ZM26.9 6.39907H32.1738V4.86692C32.1738 4.81316 32.1523 4.77015 32.1093 4.7379C32.077 4.69489 32.034 4.67338 31.9802 4.67338H27.0935C27.0397 4.67338 26.9914 4.69489 26.9483 4.7379C26.9161 4.77015 26.9 4.81316 26.9 4.86692V6.39907ZM38.1956 11.9148C37.7871 11.9148 37.4108 11.8127 37.0667 11.6084C36.7334 11.4041 36.4646 11.1353 36.2603 10.802C36.0668 10.4687 35.97 10.0977 35.97 9.68915V6.17328H43.3566V4.86692C43.3566 4.81316 43.3351 4.77015 43.292 4.7379C43.2598 4.69489 43.2168 4.67338 43.163 4.67338H35.97V2.56063H43.2437C43.6522 2.56063 44.0232 2.66278 44.3565 2.86706C44.7005 3.07135 44.9693 3.34015 45.1629 3.67346C45.3672 4.00677 45.4693 4.37771 45.4693 4.78628V11.9148H38.1956ZM38.2763 9.80204H43.3566V8.07636H38.0827V9.60851C38.0827 9.66227 38.0989 9.71065 38.1311 9.75366C38.1741 9.78592 38.2225 9.80204 38.2763 9.80204ZM47.0272 11.9148V2.56063H54.3008C54.7094 2.56063 55.0803 2.66278 55.4136 2.86706C55.7577 3.07135 56.0265 3.34015 56.22 3.67346C56.4243 4.00677 56.5265 4.37771 56.5265 4.78628V11.9148H54.4137V4.86692C54.4137 4.81316 54.3922 4.77015 54.3492 4.7379C54.317 4.69489 54.2739 4.67338 54.2202 4.67338H49.3334C49.2797 4.67338 49.2313 4.69489 49.1883 4.7379C49.156 4.77015 49.1399 4.81316 49.1399 4.86692V11.9148H47.0272Z" fill="white" fill-opacity="0.6"/>
<path d="M58.2891 11.9148V0.302735H60.6276L67.7561 8.78599V0.302735H69.9011V11.9148H67.5626L60.4179 3.41541V11.9148H58.2891ZM71.7402 11.9148V0.302735H82.433V2.44774H73.8852V5.0282H80.7557V7.18933H73.8852V11.9148H71.7402ZM87.6813 11.9148V2.44774H82.9397V0.302735H94.5518V2.44774H89.8263V11.9148H87.6813Z" fill="white"/>
</svg>
