<svg width="166" height="28" viewBox="0 0 166 28" fill="none" xmlns="http://www.w3.org/2000/svg">
<path d="M40.6187 18.3815V13.7772C40.6187 11.3947 38.6942 9.46755 36.288 9.46755H36.1007C35.1652 9.46755 34.2294 9.7887 33.7751 10.3509V4.88997C33.7751 4.22037 33.2671 3.8728 32.7591 3.8728C32.2511 3.8728 31.7433 4.22059 31.7433 4.88997V21.7275C31.7433 22.37 32.2513 22.6911 32.7591 22.6911C33.2137 22.6911 33.668 22.4233 33.7483 21.8886C34.1224 22.263 34.8977 22.6911 36.0471 22.6911H36.2878C38.6671 22.6911 40.6187 20.764 40.6187 18.3815ZM38.5871 18.3815C38.5871 19.6396 37.5713 20.657 36.288 20.657H36.0473C34.8445 20.657 33.7753 19.8538 33.7753 18.5421V13.5631C33.7753 12.3315 34.8447 11.5019 36.0473 11.5019H36.288C37.5713 11.5019 38.5871 12.5193 38.5871 13.7772V18.3815ZM49.1465 21.6738C49.1465 21.1653 48.8256 20.657 48.1308 20.657C47.3018 20.63 46.6604 19.9877 46.6604 19.1576V4.88997C46.6604 4.22037 46.1526 3.8728 45.6444 3.8728C45.1366 3.8728 44.6286 4.22059 44.6286 4.88997V19.1576C44.6286 21.1116 46.1792 22.6911 48.1308 22.6911C48.8256 22.6911 49.1465 22.1825 49.1465 21.6738ZM60.8015 18.3815V13.7772C60.8015 11.3947 58.877 9.46755 56.4977 9.46755H56.2304C53.8511 9.46755 51.9264 11.3947 51.9264 13.7772V18.3815C51.9264 20.764 53.8511 22.6911 56.2304 22.6911H56.4977C58.8768 22.6911 60.8015 20.764 60.8015 18.3815ZM58.77 18.3815C58.77 19.6396 57.7542 20.657 56.4977 20.657H56.257C54.9739 20.657 53.9581 19.6396 53.9581 18.3815V13.7772C53.9581 12.5193 54.9739 11.5019 56.2304 11.5019H56.4977C57.7542 11.5019 58.77 12.5193 58.77 13.7772V18.3815ZM73.125 18.3815C73.125 17.6857 72.6172 17.3377 72.1092 17.3377C71.6283 17.3377 71.12 17.6857 71.0934 18.3815C71.04 19.6396 70.0774 20.657 68.8212 20.657H68.5805C67.2974 20.657 66.2816 19.6396 66.2816 18.3815V13.7772C66.2816 12.5193 67.2974 11.5019 68.5539 11.5019H68.821C70.0774 11.5019 71.0398 12.4387 71.0932 13.8039C71.1198 14.4735 71.628 14.7946 72.109 14.7946C72.617 14.7946 73.1248 14.4464 73.1248 13.7772C73.1248 11.3947 71.1735 9.46755 68.8207 9.46755H68.5537C66.2012 9.46755 64.2496 11.368 64.2496 13.7772V18.3815C64.2496 20.764 66.1743 22.6911 68.5537 22.6911H68.8207C71.2003 22.6911 73.125 20.764 73.125 18.3815ZM85.9296 21.6738C85.9296 21.5133 85.903 21.3262 85.7962 21.1653L82.1336 14.7407L85.4485 11.2074C85.6626 10.9932 85.7426 10.7524 85.7426 10.5113C85.7426 9.97558 85.2878 9.46733 84.7002 9.46733C84.4595 9.46733 84.1922 9.57408 83.9781 9.81533L78.899 15.2225V4.88997C78.899 4.22037 78.391 3.8728 77.883 3.8728C77.3752 3.8728 76.8672 4.22059 76.8672 4.88997V21.6738C76.8672 22.3431 77.3752 22.6911 77.883 22.6911C78.391 22.6911 78.899 22.3431 78.899 21.6738V18.2203L80.6898 16.2932L84.0315 22.1554C84.2454 22.5307 84.5661 22.6911 84.8871 22.6911C85.5021 22.6911 85.9296 22.2091 85.9296 21.6738ZM97.4776 18.3815C97.4776 17.6857 96.9696 17.3377 96.4618 17.3377C95.9808 17.3377 95.4724 17.6857 95.4458 18.3815C95.3924 19.6396 94.43 20.657 93.174 20.657H92.9328C91.6498 20.657 90.634 19.6396 90.634 18.3815V13.7772C90.634 12.5193 91.6498 11.5019 92.9065 11.5019H93.174C94.43 11.5019 95.3924 12.4387 95.4458 13.8039C95.4724 14.4735 95.9811 14.7946 96.4618 14.7946C96.9698 14.7946 97.4776 14.4464 97.4776 13.7772C97.4776 11.3947 95.5263 9.46755 93.174 9.46755H92.9065C90.554 9.46755 88.6026 11.368 88.6026 13.7772V18.3815C88.6026 20.764 90.5274 22.6911 92.9065 22.6911H93.174C95.5531 22.6911 97.4776 20.764 97.4776 18.3815ZM110.096 21.6738V13.7772C110.096 11.3947 108.171 9.46755 105.791 9.46755H105.577C104.642 9.46755 103.706 9.7887 103.251 10.2705V4.88997C103.251 4.22037 102.744 3.8728 102.236 3.8728C101.728 3.8728 101.22 4.22059 101.22 4.88997V21.6738C101.22 22.3431 101.728 22.6911 102.236 22.6911C102.744 22.6911 103.251 22.3431 103.251 21.6738V13.6434C103.251 12.2512 104.455 11.5019 105.685 11.5019C106.861 11.5019 108.063 12.2247 108.063 13.7772V21.6738C108.063 22.3431 108.571 22.6911 109.079 22.6911C109.587 22.6911 110.096 22.3431 110.096 21.6738ZM123.461 21.6478C123.461 21.219 123.194 20.7906 122.606 20.6837C122.125 20.6035 121.911 20.2817 121.911 19.8001V13.5895C121.911 11.2875 120.093 9.46733 117.714 9.46733H117.527C116.11 9.46733 114.399 10.0295 113.543 11.9569C113.463 12.1173 113.436 12.2778 113.436 12.4387C113.436 13.0009 113.945 13.3755 114.452 13.3755C114.8 13.3755 115.147 13.2151 115.361 12.84C115.869 11.9566 116.431 11.5017 117.527 11.5017H117.714C118.89 11.5017 119.879 12.0907 119.879 13.6696C119.879 13.8037 119.879 14.0178 119.8 14.1248C119.158 15.0352 113.223 14.2853 113.036 18.5148V18.836C113.036 21.326 115.175 22.6909 117.34 22.6909H117.581C118.676 22.6909 119.692 22.2894 120.468 21.6207C120.815 22.1292 121.377 22.5307 122.285 22.6643C122.339 22.6909 122.419 22.6909 122.473 22.6909C123.114 22.6911 123.461 22.1825 123.461 21.6478ZM119.879 18.3815C119.879 19.6396 118.836 20.657 117.58 20.657H117.34C115.976 20.657 115.067 19.9342 115.067 18.7829V18.5686C115.147 16.6947 117.901 16.8021 119.879 16.2668V18.3815ZM128.701 21.6738V10.4847C128.701 9.81533 128.193 9.46755 127.685 9.46755C127.177 9.46755 126.669 9.81555 126.669 10.4847V21.6738C126.669 22.3431 127.177 22.6911 127.685 22.6911C128.193 22.6911 128.701 22.3431 128.701 21.6738ZM141.853 21.6738V13.7772C141.853 10.8325 139.848 9.46755 137.576 9.46755H137.335C136.399 9.46755 135.517 9.7887 135.036 10.2705C134.93 9.73477 134.474 9.46755 134.02 9.46755C133.485 9.46755 132.978 9.84219 132.978 10.4847V21.6738C132.978 22.3431 133.486 22.6911 133.994 22.6911C134.502 22.6911 135.009 22.3431 135.009 21.6738V13.7772C135.009 12.5193 136.052 11.5019 137.308 11.5019H137.549C138.832 11.5019 139.848 12.5193 139.848 13.7772V21.6738C139.848 22.3431 140.356 22.6911 140.864 22.6911C141.372 22.6911 141.853 22.3431 141.853 21.6738ZM152.343 21.6738V10.4847C152.343 9.81533 151.835 9.46755 151.327 9.46755C150.82 9.46755 150.312 9.81555 150.312 10.4847V21.6738C150.312 22.3431 150.82 22.6911 151.327 22.6911C151.835 22.6911 152.343 22.3431 152.343 21.6738ZM165.201 18.3815V13.7772C165.201 11.3947 163.276 9.46755 160.897 9.46755H160.63C158.251 9.46755 156.326 11.3947 156.326 13.7772V18.3815C156.326 20.764 158.251 22.6911 160.63 22.6911H160.897C163.277 22.6911 165.201 20.764 165.201 18.3815ZM163.17 18.3815C163.17 19.6396 162.154 20.657 160.897 20.657H160.657C159.373 20.657 158.358 19.6396 158.358 18.3815V13.7772C158.358 12.5193 159.373 11.5019 160.63 11.5019H160.897C162.154 11.5019 163.17 12.5193 163.17 13.7772V18.3815Z" fill="white" fill-opacity="0.5"/>
<path d="M11.6134 12.6287C10.9944 12.6287 10.491 13.133 10.491 13.7526C10.491 14.3722 10.9946 14.8763 11.6134 14.8763C12.2321 14.8763 12.736 14.3722 12.736 13.7526C12.736 13.133 12.2324 12.6287 11.6134 12.6287Z" fill="white" fill-opacity="0.5"/>
<path d="M16.8031 9.5105C16.1841 9.5105 15.6812 10.0148 15.6812 10.6344C15.6812 11.2543 16.1843 11.7581 16.8031 11.7581C17.4219 11.7581 17.9259 11.2541 17.9259 10.6344C17.9262 10.0148 17.4221 9.5105 16.8031 9.5105Z" fill="white" fill-opacity="0.5"/>
<path d="M21.9931 6.39233C21.3743 6.39233 20.8707 6.8964 20.8707 7.51604C20.8707 8.13589 21.3743 8.64062 21.9931 8.64062C22.6123 8.64062 23.1155 8.13611 23.1155 7.51604C23.1155 6.8964 22.6123 6.39233 21.9931 6.39233Z" fill="white" fill-opacity="0.5"/>
<path d="M6.4233 3.27393C5.80451 3.27393 5.3009 3.77822 5.3009 4.39807C5.3009 5.0177 5.80451 5.52177 6.4233 5.52177C7.04231 5.52177 7.54591 5.0177 7.54591 4.39807C7.54591 3.77822 7.04253 3.27393 6.4233 3.27393Z" fill="white" fill-opacity="0.5"/>
<path d="M11.6135 0.155762C10.9945 0.155762 10.4911 0.660273 10.4911 1.27991C10.4911 1.89976 10.9947 2.40405 11.6135 2.40405C12.2323 2.40405 12.7361 1.89976 12.7361 1.27991C12.7361 0.660273 12.2325 0.155762 11.6135 0.155762Z" fill="white" fill-opacity="0.5"/>
<path d="M11.6134 6.39233C10.9944 6.39233 10.491 6.8964 10.491 7.51604C10.491 8.13589 10.9946 8.64062 11.6134 8.64062C12.2321 8.64062 12.736 8.13611 12.736 7.51604C12.736 6.8964 12.2324 6.39233 11.6134 6.39233Z" fill="white" fill-opacity="0.5"/>
<path d="M16.8031 3.27393C16.1841 3.27393 15.6812 3.77822 15.6812 4.39807C15.6812 5.0177 16.1843 5.52177 16.8031 5.52177C17.4219 5.52177 17.9259 5.0177 17.9259 4.39807C17.9262 3.77822 17.4221 3.27393 16.8031 3.27393Z" fill="white" fill-opacity="0.5"/>
<path d="M16.8031 15.7471C16.1841 15.7471 15.6812 16.2511 15.6812 16.8706C15.6812 17.4904 16.1843 17.9945 16.8031 17.9945C17.4219 17.9945 17.9259 17.4904 17.9259 16.8706C17.9262 16.2511 17.4221 15.7471 16.8031 15.7471Z" fill="white" fill-opacity="0.5"/>
<path d="M21.9931 12.6287C21.3743 12.6287 20.8707 13.133 20.8707 13.7526C20.8707 14.3722 21.3743 14.8763 21.9931 14.8763C22.6123 14.8763 23.1155 14.3722 23.1155 13.7526C23.1155 13.133 22.6123 12.6287 21.9931 12.6287Z" fill="white" fill-opacity="0.5"/>
<path d="M16.8031 21.9832C16.1841 21.9832 15.6812 22.4872 15.6812 23.1071C15.6812 23.7267 16.1843 24.2308 16.8031 24.2308C17.4219 24.2308 17.9259 23.7267 17.9259 23.1071C17.9262 22.4872 17.4221 21.9832 16.8031 21.9832Z" fill="white" fill-opacity="0.5"/>
<path d="M21.9931 18.865C21.3743 18.865 20.8707 19.3691 20.8707 19.9889C20.8707 20.6085 21.3743 21.1126 21.9931 21.1126C22.6123 21.1126 23.1155 20.6085 23.1155 19.9889C23.1155 19.3691 22.6123 18.865 21.9931 18.865Z" fill="white" fill-opacity="0.5"/>
<path d="M11.6134 25.1013C10.9944 25.1013 10.491 25.6056 10.491 26.2252C10.491 26.8447 10.9946 27.3489 11.6134 27.3489C12.2321 27.3489 12.736 26.8447 12.736 26.2252C12.736 25.6056 12.2324 25.1013 11.6134 25.1013Z" fill="white" fill-opacity="0.5"/>
<path d="M11.6134 18.865C10.9944 18.865 10.491 19.3691 10.491 19.9889C10.491 20.6085 10.9946 21.1126 11.6134 21.1126C12.2321 21.1126 12.736 20.6085 12.736 19.9889C12.736 19.3691 12.2324 18.865 11.6134 18.865Z" fill="white" fill-opacity="0.5"/>
<path d="M6.4233 9.5105C5.80451 9.5105 5.3009 10.0148 5.3009 10.6344C5.3009 11.2543 5.80451 11.7581 6.4233 11.7581C7.0423 11.7581 7.54591 11.2541 7.54591 10.6344C7.54591 10.0148 7.04252 9.5105 6.4233 9.5105Z" fill="white" fill-opacity="0.5"/>
<path d="M6.4233 21.9832C5.80451 21.9832 5.3009 22.4872 5.3009 23.1071C5.3009 23.7267 5.80451 24.2308 6.4233 24.2308C7.0423 24.2308 7.54591 23.7267 7.54591 23.1071C7.54591 22.4872 7.04252 21.9832 6.4233 21.9832Z" fill="white" fill-opacity="0.5"/>
<path d="M6.4233 15.7471C5.80451 15.7471 5.3009 16.2511 5.3009 16.8706C5.3009 17.4904 5.80451 17.9945 6.4233 17.9945C7.0423 17.9945 7.54591 17.4904 7.54591 16.8706C7.54591 16.2511 7.04252 15.7471 6.4233 15.7471Z" fill="white" fill-opacity="0.5"/>
<path d="M1.23362 6.39233C0.614615 6.39233 0.11145 6.8964 0.11145 7.51604C0.11145 8.13589 0.614835 8.64062 1.23362 8.64062C1.85241 8.64062 2.35624 8.13611 2.35624 7.51604C2.35624 6.8964 1.85241 6.39233 1.23362 6.39233Z" fill="white" fill-opacity="0.5"/>
<path d="M1.23362 18.865C0.614615 18.865 0.11145 19.3691 0.11145 19.9889C0.11145 20.6085 0.614835 21.1126 1.23362 21.1126C1.85241 21.1126 2.35624 20.6085 2.35624 19.9889C2.35624 19.3691 1.85241 18.865 1.23362 18.865Z" fill="white" fill-opacity="0.5"/>
<path d="M1.23362 12.6287C0.614615 12.6287 0.11145 13.133 0.11145 13.7526C0.11145 14.3722 0.614835 14.8763 1.23362 14.8763C1.85241 14.8763 2.35624 14.3722 2.35624 13.7526C2.35624 13.133 1.85241 12.6287 1.23362 12.6287Z" fill="white" fill-opacity="0.5"/>
<path d="M127.668 3.81689C127.105 3.81689 126.647 4.2754 126.647 4.83934C126.647 5.40329 127.105 5.86201 127.668 5.86201C128.231 5.86201 128.69 5.40329 128.69 4.83934C128.69 4.2754 128.232 3.81689 127.668 3.81689Z" fill="white" fill-opacity="0.5"/>
<path d="M151.319 3.81689C150.755 3.81689 150.297 4.2754 150.297 4.83934C150.297 5.40329 150.756 5.86201 151.319 5.86201C151.882 5.86201 152.34 5.40329 152.34 4.83934C152.34 4.2754 151.882 3.81689 151.319 3.81689Z" fill="white" fill-opacity="0.5"/>
<path d="M145.961 20.7302C145.401 20.7302 144.945 21.1863 144.945 21.7472C144.945 22.308 145.401 22.7646 145.961 22.7646C146.521 22.7646 146.977 22.308 146.977 21.7472C146.977 21.1863 146.521 20.7302 145.961 20.7302Z" fill="white" fill-opacity="0.5"/>
</svg>
